<svg xmlns="http://www.w3.org/2000/svg" viewBox="0 0 1004.5 533.99" shape-rendering="geometricPrecision" text-rendering="geometricPrecision">
  <path transform="scale(1.00215 1.0381)" fill="#e5e5e5" stroke="#000" d="M37 0h928.348s37 0 37 37v440.386s0 37-37 37H37s-37 0-37-37V37S0 0 37 0"/>
  <path fill="#ec5800" d="M27.085 29.907a11.904 11.29 0 1 0 23.807 0 11.904 11.29 0 1 0-23.807 0"/>
  <path fill="#f4c430" d="M59.911 29.907a11.904 11.29 0 1 0 23.806 0 11.904 11.29 0 1 0-23.806 0"/>
  <path fill="#0bda51" d="M90.582 29.907a11.904 11.29 0 1 0 23.806 0 11.904 11.29 0 1 0-23.806 0"/>
</svg>

