<svg width="164" height="279" viewBox="0 0 164 279" fill="none" xmlns="http://www.w3.org/2000/svg">
<rect x="2.5" y="2.5" width="159" height="274" rx="17.5" stroke="black" stroke-width="5"/>
<path d="M46 5V17C46 19.7614 48.2386 22 51 22H115C117.761 22 120 19.7614 120 17V5" stroke="black" stroke-width="5"/>
<rect x="20" y="59" width="127" height="173" stroke="black" stroke-width="2"/>
<path d="M19.5 102H148M19.5 145H148M19.5 188.5H148M63 58.5V232.5M106.5 58.5V232.5" stroke="black" stroke-width="2"/>
<g clip-path="url(#clip0_0_1)">
<path d="M127 63C136.389 63 144 70.6113 144 80C144 89.3887 136.389 97 127 97C117.611 97 110 89.3887 110 80C110 70.6113 117.611 63 127 63ZM127 95.8666C135.763 95.8666 142.867 88.7628 142.867 80C142.867 71.2372 135.763 64.1334 127 64.1334C118.237 64.1334 111.133 71.2372 111.133 80C111.133 88.7628 118.237 95.8666 127 95.8666Z" fill="black"/>
<path d="M133.233 80C131.875 80 130.967 78.1841 130.967 76.0334C130.967 73.8826 131.875 72.0667 133.233 72.0667C134.592 72.0667 135.5 73.8827 135.5 76.0334C135.5 78.1841 134.592 80 133.233 80ZM133.233 73.2C132.714 73.2 132.1 74.4282 132.1 76.0334C132.1 77.6385 132.714 78.8667 133.233 78.8667C133.753 78.8667 134.367 77.6385 134.367 76.0334C134.367 74.4282 133.753 73.2 133.233 73.2Z" fill="black"/>
<path d="M120.767 72.0667C122.125 72.0667 123.033 73.8826 123.033 76.0333C123.033 78.1841 122.125 79.9999 120.767 79.9999C119.408 79.9999 118.5 78.184 118.5 76.0333C118.5 73.8826 119.408 72.0667 120.767 72.0667ZM120.767 78.8666C121.286 78.8666 121.9 77.6385 121.9 76.0333C121.9 74.4281 121.286 73.1999 120.767 73.1999C120.247 73.1999 119.633 74.4281 119.633 76.0333C119.633 77.6385 120.247 78.8666 120.767 78.8666Z" fill="black"/>
<path d="M117.933 70.9334C119.187 70.9334 120.2 69.92 120.2 68.6667C120.2 68.3537 120.454 68.1001 120.767 68.1001C121.08 68.1001 121.333 68.3537 121.333 68.6667C121.333 70.5459 119.813 72.0667 117.933 72.0667C117.62 72.0667 117.367 71.813 117.367 71.5001C117.367 71.1871 117.62 70.9334 117.933 70.9334Z" fill="black"/>
<path d="M132.667 68.6667C132.667 68.3537 132.92 68.1 133.233 68.1C133.546 68.1 133.8 68.3537 133.8 68.6667C133.8 69.9199 134.813 70.9333 136.067 70.9333C136.38 70.9333 136.633 71.187 136.633 71.4999C136.633 71.8129 136.38 72.0666 136.067 72.0666C134.187 72.0667 132.667 70.5459 132.667 68.6667Z" fill="black"/>
<path d="M127 82.8333C130.053 82.8333 132.772 84.4612 134.29 87.0826C134.447 87.3534 134.355 87.7001 134.084 87.857C133.813 88.0138 133.467 87.9215 133.31 87.6507C131.99 85.3731 129.641 83.9666 127 83.9666C124.359 83.9666 122.01 85.3731 120.69 87.6507C120.533 87.9215 120.187 88.0138 119.916 87.857C119.645 87.7001 119.553 87.3534 119.71 87.0826C121.228 84.4612 123.947 82.8333 127 82.8333Z" fill="black"/>
</g>
<g clip-path="url(#clip1_0_1)">
<path d="M41 149C50.3887 149 58 156.611 58 166C58 175.389 50.3887 183 41 183C31.6113 183 24 175.389 24 166C24 156.611 31.6113 149 41 149ZM41 181.867C49.7628 181.867 56.8666 174.763 56.8666 166C56.8666 157.237 49.7628 150.133 41 150.133C32.2372 150.133 25.1334 157.237 25.1334 166C25.1334 174.763 32.2372 181.867 41 181.867Z" fill="black"/>
<path d="M47.2334 166C45.8747 166 44.9667 164.184 44.9667 162.033C44.9667 159.883 45.8747 158.067 47.2334 158.067C48.5921 158.067 49.5 159.883 49.5 162.033C49.5 164.184 48.592 166 47.2334 166ZM47.2334 159.2C46.7141 159.2 46.1 160.428 46.1 162.033C46.1 163.639 46.7141 164.867 47.2334 164.867C47.7526 164.867 48.3667 163.639 48.3667 162.033C48.3667 160.428 47.7526 159.2 47.2334 159.2Z" fill="black"/>
<path d="M34.7666 158.067C36.1254 158.067 37.0333 159.883 37.0333 162.033C37.0333 164.184 36.1253 166 34.7666 166C33.408 166 32.5 164.184 32.5 162.033C32.5 159.883 33.408 158.067 34.7666 158.067ZM34.7666 164.867C35.2859 164.867 35.9 163.638 35.9 162.033C35.9 160.428 35.2859 159.2 34.7666 159.2C34.2474 159.2 33.6333 160.428 33.6333 162.033C33.6333 163.638 34.2474 164.867 34.7666 164.867Z" fill="black"/>
<path d="M31.9334 156.933C33.1866 156.933 34.2 155.92 34.2 154.667C34.2 154.354 34.4537 154.1 34.7666 154.1C35.0796 154.1 35.3333 154.354 35.3333 154.667C35.3333 156.546 33.8125 158.067 31.9333 158.067C31.6203 158.067 31.3666 157.813 31.3666 157.5C31.3666 157.187 31.6204 156.933 31.9334 156.933Z" fill="black"/>
<path d="M46.6666 154.667C46.6666 154.354 46.9203 154.1 47.2333 154.1C47.5463 154.1 47.7999 154.354 47.7999 154.667C47.7999 155.92 48.8133 156.933 50.0666 156.933C50.3796 156.933 50.6332 157.187 50.6332 157.5C50.6332 157.813 50.3796 158.067 50.0666 158.067C48.1874 158.067 46.6666 156.546 46.6666 154.667Z" fill="black"/>
<path d="M41 168.833C44.053 168.833 46.7718 170.461 48.2903 173.083C48.4472 173.353 48.3548 173.7 48.084 173.857C47.8132 174.014 47.4665 173.921 47.3097 173.651C45.9903 171.373 43.6413 169.967 41 169.967C38.3587 169.967 36.0097 171.373 34.6903 173.651C34.5335 173.921 34.1868 174.014 33.916 173.857C33.6452 173.7 33.5528 173.353 33.7097 173.083C35.2282 170.461 37.947 168.833 41 168.833Z" fill="black"/>
</g>
<g clip-path="url(#clip2_0_1)">
<path d="M40.9999 124.133C38.0989 124.133 35.6007 126.131 34.9362 128.916C34.6903 129.949 35.5042 130.933 36.5652 130.933C37.011 130.933 37.408 130.771 37.7266 130.489C38.6483 129.673 39.7647 129.233 40.9999 129.233C42.2356 129.233 43.3514 129.673 44.2731 130.489C44.5912 130.771 44.989 130.934 45.4058 130.934C46.4962 130.934 47.3095 129.949 47.0638 128.917C46.3998 126.132 43.9013 124.133 40.9999 124.133ZM45.4353 129.8C45.2772 129.8 45.1432 129.745 45.0248 129.64C43.8992 128.644 42.5178 128.1 41 128.1C39.4826 128.1 38.1006 128.644 36.9756 129.64C36.857 129.745 36.7232 129.8 36.5947 129.8C36.2241 129.8 35.9654 129.487 36.0387 129.179C36.582 126.901 38.6265 125.266 40.9999 125.266C43.3737 125.266 45.4183 126.902 45.9613 129.179C46.0346 129.487 45.776 129.8 45.4353 129.8Z" fill="black"/>
<path d="M41 106C31.6113 106 24 113.611 24 123C24 132.389 31.6113 140 41 140C50.3887 140 58 132.389 58 123C58 113.611 50.3887 106 41 106ZM41 138.867C32.2372 138.867 25.1334 131.763 25.1334 123C25.1334 114.237 32.2372 107.133 41 107.133C49.7628 107.133 56.8666 114.237 56.8666 123C56.8666 131.763 49.7628 138.867 41 138.867Z" fill="black"/>
<path d="M47.6358 113.962L48.2773 113.321C48.4985 113.1 48.4985 112.741 48.2773 112.519C48.056 112.298 47.6972 112.298 47.4759 112.519L45.2767 114.719C45.2456 114.748 45.2151 114.779 45.1853 114.81L43.4327 116.563C43.2114 116.784 43.2114 117.143 43.4327 117.364C43.6539 117.585 44.0127 117.585 44.2341 117.364L44.429 117.169C44.6245 118.543 45.8053 119.6 47.2334 119.6C48.7981 119.6 50.0667 118.331 50.0667 116.767C50.0666 115.339 49.0099 114.158 47.6358 113.962ZM47.2334 118.467C46.2946 118.467 45.5334 117.705 45.5334 116.767C45.5334 116.321 45.7055 115.915 45.9866 115.611L46.0782 115.52C46.3815 115.239 46.7872 115.067 47.2334 115.067C48.1721 115.067 48.9334 115.828 48.9334 116.767C48.9334 117.705 48.1721 118.467 47.2334 118.467Z" fill="black"/>
<path d="M37.571 117.169L37.7663 117.364C37.9876 117.586 38.3464 117.586 38.5677 117.364C38.789 117.143 38.789 116.784 38.5677 116.563L36.8147 114.81C36.7849 114.779 36.7544 114.748 36.7232 114.719L34.524 112.519C34.3027 112.298 33.9439 112.298 33.7226 112.519C33.5013 112.741 33.5013 113.099 33.7226 113.321L34.3642 113.962C32.9901 114.158 31.9333 115.339 31.9333 116.767C31.9333 118.331 33.2019 119.6 34.7666 119.6C36.1947 119.6 37.3755 118.543 37.571 117.169ZM34.7666 118.467C33.8279 118.467 33.0666 117.705 33.0666 116.767C33.0666 115.828 33.8279 115.067 34.7666 115.067C35.2128 115.067 35.6186 115.239 35.9219 115.52L36.0134 115.611C36.2945 115.915 36.4667 116.321 36.4667 116.767C36.4666 117.706 35.7055 118.467 34.7666 118.467Z" fill="black"/>
<path d="M45.2728 132.474C44.1475 131.477 42.7665 130.933 41.2484 130.933C39.731 130.933 38.3496 131.478 37.2245 132.474C36.9902 132.681 36.9684 133.039 37.1759 133.274C37.3833 133.508 37.7414 133.53 37.9758 133.322C38.8974 132.506 40.0133 132.067 41.2484 132.067C42.4843 132.067 43.5997 132.506 44.5215 133.322C44.7559 133.53 45.114 133.508 45.3215 133.274C45.5289 133.039 45.5071 132.681 45.2728 132.474Z" fill="black"/>
</g>
<g clip-path="url(#clip3_0_1)">
<path d="M83.9999 124.133C81.0989 124.133 78.6007 126.131 77.9362 128.916C77.6903 129.949 78.5042 130.933 79.5652 130.933C80.011 130.933 80.408 130.771 80.7266 130.489C81.6483 129.673 82.7647 129.233 83.9999 129.233C85.2356 129.233 86.3514 129.673 87.2731 130.489C87.5912 130.771 87.989 130.934 88.4058 130.934C89.4962 130.934 90.3095 129.949 90.0638 128.917C89.3998 126.132 86.9013 124.133 83.9999 124.133ZM88.4353 129.8C88.2772 129.8 88.1432 129.745 88.0248 129.64C86.8992 128.644 85.5178 128.1 84 128.1C82.4826 128.1 81.1006 128.644 79.9756 129.64C79.857 129.745 79.7232 129.8 79.5947 129.8C79.2241 129.8 78.9654 129.487 79.0387 129.179C79.582 126.901 81.6265 125.266 83.9999 125.266C86.3737 125.266 88.4183 126.902 88.9613 129.179C89.0346 129.487 88.776 129.8 88.4353 129.8Z" fill="black"/>
<path d="M84 106C74.6113 106 67 113.611 67 123C67 132.389 74.6113 140 84 140C93.3887 140 101 132.389 101 123C101 113.611 93.3887 106 84 106ZM84 138.867C75.2372 138.867 68.1334 131.763 68.1334 123C68.1334 114.237 75.2372 107.133 84 107.133C92.7628 107.133 99.8666 114.237 99.8666 123C99.8666 131.763 92.7628 138.867 84 138.867Z" fill="black"/>
<path d="M90.6358 113.962L91.2773 113.321C91.4985 113.1 91.4985 112.741 91.2773 112.519C91.056 112.298 90.6972 112.298 90.4759 112.519L88.2767 114.719C88.2456 114.748 88.2151 114.779 88.1853 114.81L86.4327 116.563C86.2114 116.784 86.2114 117.143 86.4327 117.364C86.6539 117.585 87.0127 117.585 87.2341 117.364L87.429 117.169C87.6245 118.543 88.8053 119.6 90.2334 119.6C91.7981 119.6 93.0667 118.331 93.0667 116.767C93.0666 115.339 92.0099 114.158 90.6358 113.962ZM90.2334 118.467C89.2946 118.467 88.5334 117.705 88.5334 116.767C88.5334 116.321 88.7055 115.915 88.9866 115.611L89.0782 115.52C89.3815 115.239 89.7872 115.067 90.2334 115.067C91.1721 115.067 91.9334 115.828 91.9334 116.767C91.9334 117.705 91.1721 118.467 90.2334 118.467Z" fill="black"/>
<path d="M80.571 117.169L80.7663 117.364C80.9876 117.586 81.3464 117.586 81.5677 117.364C81.789 117.143 81.789 116.784 81.5677 116.563L79.8147 114.81C79.7849 114.779 79.7544 114.748 79.7232 114.719L77.524 112.519C77.3027 112.298 76.9439 112.298 76.7226 112.519C76.5013 112.741 76.5013 113.099 76.7226 113.321L77.3642 113.962C75.9901 114.158 74.9333 115.339 74.9333 116.767C74.9333 118.331 76.2019 119.6 77.7666 119.6C79.1947 119.6 80.3755 118.543 80.571 117.169ZM77.7666 118.467C76.8279 118.467 76.0666 117.705 76.0666 116.767C76.0666 115.828 76.8279 115.067 77.7666 115.067C78.2128 115.067 78.6186 115.239 78.9219 115.52L79.0134 115.611C79.2945 115.915 79.4667 116.321 79.4667 116.767C79.4666 117.706 78.7055 118.467 77.7666 118.467Z" fill="black"/>
<path d="M88.2728 132.474C87.1475 131.477 85.7665 130.933 84.2484 130.933C82.731 130.933 81.3496 131.478 80.2245 132.474C79.9902 132.681 79.9684 133.039 80.1759 133.274C80.3833 133.508 80.7414 133.53 80.9758 133.322C81.8974 132.506 83.0133 132.067 84.2484 132.067C85.4843 132.067 86.5997 132.506 87.5215 133.322C87.7559 133.53 88.114 133.508 88.3214 133.274C88.5289 133.039 88.5071 132.681 88.2728 132.474Z" fill="black"/>
</g>
<g clip-path="url(#clip4_0_1)">
<path d="M127 106C117.611 106 110 113.611 110 123C110 132.389 117.611 140 127 140C136.389 140 144 132.389 144 123C144 113.611 136.389 106 127 106ZM127 138.867C118.237 138.867 111.133 131.763 111.133 123C111.133 114.237 118.237 107.133 127 107.133C135.763 107.133 142.867 114.237 142.867 123C142.867 131.763 135.763 138.867 127 138.867Z" fill="black"/>
<path d="M118.5 117.9C118.5 116.961 119.261 116.2 120.2 116.2C121.139 116.2 121.9 116.961 121.9 117.9C121.9 118.213 122.154 118.467 122.467 118.467C122.78 118.467 123.033 118.213 123.033 117.9C123.033 116.335 121.765 115.067 120.2 115.067C118.635 115.067 117.367 116.335 117.367 117.9C117.367 118.213 117.62 118.467 117.933 118.467C118.246 118.467 118.5 118.213 118.5 117.9Z" fill="black"/>
<path d="M133.8 115.067C132.235 115.067 130.967 116.335 130.967 117.9C130.967 118.213 131.22 118.467 131.533 118.467C131.846 118.467 132.1 118.213 132.1 117.9C132.1 116.961 132.861 116.2 133.8 116.2C134.739 116.2 135.5 116.961 135.5 117.9C135.5 118.213 135.754 118.467 136.067 118.467C136.38 118.467 136.633 118.213 136.633 117.9C136.633 116.335 135.365 115.067 133.8 115.067Z" fill="black"/>
<path d="M115.1 120.733C113.848 120.733 112.833 121.748 112.833 123C112.833 124.252 113.848 125.267 115.1 125.267C116.352 125.267 117.367 124.252 117.367 123C117.367 121.748 116.352 120.733 115.1 120.733ZM115.1 124.133C114.474 124.133 113.967 123.626 113.967 123C113.967 122.374 114.474 121.867 115.1 121.867C115.726 121.867 116.233 122.374 116.233 123C116.233 123.626 115.726 124.133 115.1 124.133Z" fill="black"/>
<path d="M138.9 120.733C137.648 120.733 136.633 121.748 136.633 123C136.633 124.252 137.648 125.267 138.9 125.267C140.152 125.267 141.167 124.252 141.167 123C141.167 121.748 140.152 120.733 138.9 120.733ZM138.9 124.133C138.274 124.133 137.767 123.626 137.767 123C137.767 122.374 138.274 121.867 138.9 121.867C139.526 121.867 140.033 122.374 140.033 123C140.033 123.626 139.526 124.133 138.9 124.133Z" fill="black"/>
<path d="M135.796 127.062C135.536 126.888 135.184 126.958 135.009 127.218C133.231 129.874 130.254 131.5 127 131.5C123.746 131.5 120.769 129.874 118.991 127.218C118.817 126.958 118.465 126.888 118.205 127.062C117.945 127.237 117.875 127.588 118.049 127.849C120.035 130.815 123.364 132.633 127 132.633C130.636 132.633 133.964 130.815 135.951 127.849C136.125 127.589 136.056 127.237 135.796 127.062Z" fill="black"/>
</g>
<g clip-path="url(#clip5_0_1)">
<path d="M84 63C74.6113 63 67 70.6113 67 80C67 89.3887 74.6113 97 84 97C93.3887 97 101 89.3887 101 80C101 70.6113 93.3887 63 84 63ZM84 95.8666C75.2372 95.8666 68.1334 88.7628 68.1334 80C68.1334 71.2372 75.2372 64.1334 84 64.1334C92.7628 64.1334 99.8666 71.2372 99.8666 80C99.8666 88.7628 92.7628 95.8666 84 95.8666Z" fill="black"/>
<path d="M75.5 74.9C75.5 73.9612 76.2612 73.2 77.2 73.2C78.1388 73.2 78.9 73.9612 78.9 74.9C78.9 75.213 79.1537 75.4667 79.4666 75.4667C79.7796 75.4667 80.0333 75.213 80.0333 74.9C80.0333 73.3353 78.7647 72.0667 77.1999 72.0667C75.6352 72.0667 74.3666 73.3353 74.3666 74.9C74.3666 75.213 74.6202 75.4667 74.9332 75.4667C75.2462 75.4667 75.5 75.213 75.5 74.9Z" fill="black"/>
<path d="M90.8 72.0667C89.2353 72.0667 87.9666 73.3353 87.9666 74.9C87.9666 75.213 88.2203 75.4667 88.5333 75.4667C88.8463 75.4667 89.0999 75.213 89.0999 74.9C89.0999 73.9612 89.8611 73.2 90.7999 73.2C91.7387 73.2 92.4999 73.9612 92.4999 74.9C92.4999 75.213 92.7537 75.4667 93.0666 75.4667C93.3796 75.4667 93.6332 75.213 93.6332 74.9C93.6334 73.3353 92.3647 72.0667 90.8 72.0667Z" fill="black"/>
<path d="M72.1 77.7334C70.848 77.7334 69.8334 78.7481 69.8334 80C69.8334 81.252 70.8481 82.2667 72.1 82.2667C73.352 82.2667 74.3666 81.2519 74.3666 80C74.3666 78.7481 73.352 77.7334 72.1 77.7334ZM72.1 81.1334C71.474 81.1334 70.9666 80.626 70.9666 80C70.9666 79.374 71.474 78.8667 72.1 78.8667C72.726 78.8667 73.2334 79.374 73.2334 80C73.2334 80.626 72.726 81.1334 72.1 81.1334Z" fill="black"/>
<path d="M95.9 77.7334C94.648 77.7334 93.6334 78.7481 93.6334 80C93.6334 81.252 94.6481 82.2667 95.9 82.2667C97.152 82.2667 98.1666 81.2519 98.1666 80C98.1666 78.7481 97.152 77.7334 95.9 77.7334ZM95.9 81.1334C95.274 81.1334 94.7666 80.626 94.7666 80C94.7666 79.374 95.274 78.8667 95.9 78.8667C96.526 78.8667 97.0334 79.374 97.0334 80C97.0334 80.626 96.526 81.1334 95.9 81.1334Z" fill="black"/>
<path d="M92.7956 84.0625C92.5355 83.8883 92.1836 83.9579 92.0094 84.218C90.2308 86.8739 87.2541 88.5 84.0001 88.5C80.7459 88.5 77.7688 86.8737 75.9909 84.2181C75.8168 83.958 75.4648 83.8883 75.2048 84.0624C74.9447 84.2365 74.8751 84.5885 75.0491 84.8485C77.0352 87.8151 80.3637 89.6333 84.0001 89.6333C87.6364 89.6333 90.9643 87.8153 92.9512 84.8486C93.1253 84.5886 93.0556 84.2366 92.7956 84.0625Z" fill="black"/>
</g>
<defs>
<clipPath id="clip0_0_1">
<rect width="34" height="34" fill="white" transform="matrix(-1 0 0 1 144 63)"/>
</clipPath>
<clipPath id="clip1_0_1">
<rect width="34" height="34" fill="white" transform="matrix(-1 0 0 1 58 149)"/>
</clipPath>
<clipPath id="clip2_0_1">
<rect width="34" height="34" fill="white" transform="translate(24 106)"/>
</clipPath>
<clipPath id="clip3_0_1">
<rect width="34" height="34" fill="white" transform="translate(67 106)"/>
</clipPath>
<clipPath id="clip4_0_1">
<rect width="34" height="34" fill="white" transform="translate(110 106)"/>
</clipPath>
<clipPath id="clip5_0_1">
<rect width="34" height="34" fill="white" transform="translate(67 63)"/>
</clipPath>
</defs>
</svg>
