<svg width="607" height="608" viewBox="0 0 607 608" fill="none" xmlns="http://www.w3.org/2000/svg">
<mask id="path-1-inside-1_0_1" fill="white">
<path d="M0 35C0 15.67 15.67 0 35 0H572C591.33 0 607 15.67 607 35V62H0V35Z"/>
</mask>
<path d="M0 35C0 15.67 15.67 0 35 0H572C591.33 0 607 15.67 607 35V62H0V35Z" fill="#E5E5E5"/>
<path d="M-1 35C-1 15.1177 15.1177 -1 35 -1H572C591.882 -1 608 15.1177 608 35H606C606 16.2223 590.778 1 572 1H35C16.2223 1 1 16.2223 1 35H-1ZM608 62.5H-1L1 61.5H606L608 62.5ZM-1 62.5V35C-1 15.1177 15.1177 -1 35 -1V1C16.2223 1 1 16.2223 1 35V61.5L-1 62.5ZM572 -1C591.882 -1 608 15.1177 608 35V62.5L606 61.5V35C606 16.2223 590.778 1 572 1V-1Z" fill="black" mask="url(#path-1-inside-1_0_1)"/>
<mask id="path-3-inside-2_0_1" fill="white">
<path d="M0 51H607V573C607 592.33 591.33 608 572 608H35C15.67 608 0 592.33 0 573V51Z"/>
</mask>
<path d="M0 51H607V573C607 592.33 591.33 608 572 608H35C15.67 608 0 592.33 0 573V51Z" fill="#A0A09F"/>
<path d="M-1 50.5H608L606 51.5H1L-1 50.5ZM608 573C608 592.882 591.882 609 572 609H35C15.1177 609 -1 592.882 -1 573H1C1 591.778 16.2223 607 35 607H572C590.778 607 606 591.778 606 573H608ZM35 609C15.1177 609 -1 592.882 -1 573V50.5L1 51.5V573C1 591.778 16.2223 607 35 607V609ZM608 50.5V573C608 592.882 591.882 609 572 609V607C590.778 607 606 591.778 606 573V51.5L608 50.5Z" fill="black" mask="url(#path-3-inside-2_0_1)"/>
<circle cx="43.5" cy="29.5" r="11" fill="#EC5800" stroke="black"/>
<circle cx="82.5" cy="29.5" r="11" fill="#F4C430" stroke="black"/>
<circle cx="121.5" cy="29.5" r="11" fill="#0BDA51" stroke="black"/>
</svg>
