<?xml version="1.0" encoding="iso-8859-1"?>
<!-- Uploaded to: SVG Repo, www.svgrepo.com, Generator: SVG Repo Mixer Tools -->
<svg fill="#000000" height="800px" width="800px" version="1.1" id="Layer_1" xmlns="http://www.w3.org/2000/svg" xmlns:xlink="http://www.w3.org/1999/xlink" 
	 viewBox="0 0 491.52 491.52" xml:space="preserve">
<g>
	<g>
		<path d="M194.56,98.8v130.08l112.64-65.04L194.56,98.8z M215.04,134.28l51.2,29.56l-51.2,29.56V134.28z"/>
	</g>
</g>
<g>
	<g>
		<path d="M491.52,327.68V0H0v327.68h235.52v83.374c-14.326,3.722-25.544,14.941-29.266,29.266H112.64v20.48h93.614
			c4.578,17.618,20.473,30.72,39.506,30.72s34.928-13.102,39.506-30.72h93.614v-20.48h-93.614
			c-3.722-14.326-14.941-25.544-29.266-29.266V327.68H491.52z M266.24,450.56c0,11.29-9.19,20.48-20.48,20.48
			c-11.29,0-20.48-9.19-20.48-20.48s9.19-20.48,20.48-20.48C257.05,430.08,266.24,439.27,266.24,450.56z M20.48,307.2V20.48h450.56
			V307.2H20.48z"/>
	</g>
</g>
</svg>