<svg width="160" height="275" viewBox="0 0 160 275" fill="none" xmlns="http://www.w3.org/2000/svg">
<rect x="1.5" y="1.5" width="157" height="272" rx="16.5" stroke="black" stroke-width="3"/>
<path d="M44 3V15C44 17.7614 46.2386 20 49 20H113C115.761 20 118 17.7614 118 15V3" stroke="black" stroke-width="3"/>
<rect x="17.5" y="56.5" width="128" height="174" stroke="black"/>
<path d="M17.5 100H146M17.5 143H146M17.5 186.5H146M61 56.5V230.5M104.5 56.5V230.5" stroke="black"/>
<g clip-path="url(#clip0_0_1)">
<path d="M126 61C135.941 61 144 69.059 144 79C144 88.941 135.941 97 126 97C116.059 97 108 88.941 108 79C108 69.059 116.059 61 126 61ZM126 95.8C135.278 95.8 142.8 88.2782 142.8 79C142.8 69.7218 135.278 62.2 126 62.2C116.722 62.2 109.2 69.7218 109.2 79C109.2 88.2782 116.722 95.8 126 95.8Z" fill="black"/>
<path d="M132.6 79C131.161 79 130.2 77.0772 130.2 74.8C130.2 72.5227 131.161 70.6 132.6 70.6C134.039 70.6 135 72.5228 135 74.8C135 77.0772 134.039 79 132.6 79ZM132.6 71.8C132.05 71.8 131.4 73.1004 131.4 74.8C131.4 76.4996 132.05 77.8 132.6 77.8C133.15 77.8 133.8 76.4996 133.8 74.8C133.8 73.1004 133.15 71.8 132.6 71.8Z" fill="black"/>
<path d="M119.4 70.6C120.839 70.6 121.8 72.5227 121.8 74.8C121.8 77.0772 120.839 78.9999 119.4 78.9999C117.961 78.9999 117 77.0772 117 74.8C117 72.5227 117.961 70.6 119.4 70.6ZM119.4 77.8C119.95 77.8 120.6 76.4995 120.6 74.8C120.6 73.1004 119.95 71.7999 119.4 71.7999C118.85 71.7999 118.2 73.1004 118.2 74.8C118.2 76.4995 118.85 77.8 119.4 77.8Z" fill="black"/>
<path d="M116.4 69.4C117.727 69.4 118.8 68.3271 118.8 67.0001C118.8 66.6687 119.069 66.4001 119.4 66.4001C119.731 66.4001 120 66.6687 120 67.0001C120 68.9898 118.39 70.6001 116.4 70.6001C116.069 70.6001 115.8 70.3315 115.8 70.0001C115.8 69.6687 116.069 69.4 116.4 69.4Z" fill="black"/>
<path d="M132 67C132 66.6686 132.269 66.4 132.6 66.4C132.931 66.4 133.2 66.6686 133.2 67C133.2 68.327 134.273 69.3999 135.6 69.3999C135.931 69.3999 136.2 69.6685 136.2 69.9999C136.2 70.3313 135.931 70.5999 135.6 70.5999C133.61 70.6 132 68.9897 132 67Z" fill="black"/>
<path d="M126 82C129.233 82 132.111 83.7237 133.719 86.4993C133.885 86.786 133.787 87.1531 133.501 87.3192C133.214 87.4852 132.847 87.3874 132.681 87.1007C131.284 84.6891 128.797 83.2 126 83.2C123.203 83.2 120.716 84.6891 119.319 87.1007C119.153 87.3874 118.786 87.4852 118.499 87.3192C118.213 87.1531 118.115 86.786 118.281 86.4993C119.889 83.7236 122.767 82 126 82Z" fill="black"/>
</g>
<g clip-path="url(#clip1_0_1)">
<path d="M39 147C48.941 147 57 155.059 57 165C57 174.941 48.941 183 39 183C29.059 183 21 174.941 21 165C21 155.059 29.059 147 39 147ZM39 181.8C48.2782 181.8 55.8 174.278 55.8 165C55.8 155.722 48.2782 148.2 39 148.2C29.7218 148.2 22.2 155.722 22.2 165C22.2 174.278 29.7218 181.8 39 181.8Z" fill="black"/>
<path d="M45.6 165C44.1614 165 43.2 163.077 43.2 160.8C43.2 158.523 44.1614 156.6 45.6 156.6C47.0387 156.6 48 158.523 48 160.8C48 163.077 47.0386 165 45.6 165ZM45.6 157.8C45.0503 157.8 44.4 159.1 44.4 160.8C44.4 162.5 45.0503 163.8 45.6 163.8C46.1498 163.8 46.8 162.5 46.8 160.8C46.8 159.1 46.1498 157.8 45.6 157.8Z" fill="black"/>
<path d="M32.4 156.6C33.8386 156.6 34.8 158.523 34.8 160.8C34.8 163.077 33.8386 165 32.4 165C30.9614 165 30 163.077 30 160.8C30 158.523 30.9614 156.6 32.4 156.6ZM32.4 163.8C32.9497 163.8 33.6 162.5 33.6 160.8C33.6 159.1 32.9497 157.8 32.4 157.8C31.8502 157.8 31.2 159.1 31.2 160.8C31.2 162.5 31.8502 163.8 32.4 163.8Z" fill="black"/>
<path d="M29.4 155.4C30.727 155.4 31.8 154.327 31.8 153C31.8 152.669 32.0686 152.4 32.4 152.4C32.7314 152.4 33 152.669 33 153C33 154.99 31.3897 156.6 29.4 156.6C29.0686 156.6 28.8 156.331 28.8 156C28.8 155.669 29.0686 155.4 29.4 155.4Z" fill="black"/>
<path d="M45 153C45 152.669 45.2686 152.4 45.6 152.4C45.9313 152.4 46.1999 152.669 46.1999 153C46.1999 154.327 47.2729 155.4 48.5999 155.4C48.9313 155.4 49.1999 155.669 49.1999 156C49.1999 156.331 48.9313 156.6 48.5999 156.6C46.6102 156.6 45 154.99 45 153Z" fill="black"/>
<path d="M39 168C42.2326 168 45.1113 169.724 46.7192 172.499C46.8853 172.786 46.7875 173.153 46.5007 173.319C46.214 173.485 45.8469 173.387 45.6808 173.101C44.2838 170.689 41.7967 169.2 39 169.2C36.2033 169.2 33.7162 170.689 32.3192 173.101C32.1531 173.387 31.786 173.485 31.4993 173.319C31.2125 173.153 31.1147 172.786 31.2808 172.499C32.8887 169.724 35.7674 168 39 168Z" fill="black"/>
</g>
<g clip-path="url(#clip2_0_1)">
<path d="M38.9999 123.2C35.9283 123.2 33.2831 125.315 32.5795 128.264C32.3192 129.358 33.1809 130.4 34.3043 130.4C34.7764 130.4 35.1967 130.228 35.534 129.929C36.51 129.065 37.692 128.6 38.9999 128.6C40.3082 128.6 41.4897 129.065 42.4656 129.929C42.8024 130.228 43.2236 130.4 43.665 130.4C44.8196 130.4 45.6807 129.358 45.4204 128.265C44.7174 125.316 42.072 123.2 38.9999 123.2ZM43.6962 129.2C43.5288 129.2 43.3869 129.142 43.2616 129.031C42.0698 127.976 40.6071 127.4 39 127.4C37.3934 127.4 35.93 127.976 34.7389 129.031C34.6133 129.142 34.4716 129.2 34.3355 129.2C33.9432 129.2 33.6693 128.868 33.7468 128.542C34.3221 126.131 36.4869 124.4 38.9999 124.4C41.5133 124.4 43.6782 126.131 44.2531 128.543C44.3307 128.869 44.0569 129.2 43.6962 129.2Z" fill="black"/>
<path d="M39 104C29.059 104 21 112.059 21 122C21 131.941 29.059 140 39 140C48.941 140 57 131.941 57 122C57 112.059 48.941 104 39 104ZM39 138.8C29.7218 138.8 22.2 131.278 22.2 122C22.2 112.722 29.7218 105.2 39 105.2C48.2782 105.2 55.8 112.722 55.8 122C55.8 131.278 48.2782 138.8 39 138.8Z" fill="black"/>
<path d="M46.0261 112.431L46.7053 111.751C46.9396 111.517 46.9396 111.137 46.7053 110.903C46.4711 110.669 46.0912 110.669 45.8568 110.903L43.5283 113.231C43.4953 113.263 43.463 113.295 43.4314 113.328L41.5758 115.184C41.3415 115.418 41.3415 115.798 41.5758 116.033C41.81 116.267 42.1899 116.267 42.4243 116.033L42.6307 115.826C42.8377 117.281 44.088 118.4 45.6 118.4C47.2568 118.4 48.6 117.057 48.6 115.4C48.6 113.888 47.481 112.638 46.0261 112.431ZM45.6 117.2C44.606 117.2 43.8 116.394 43.8 115.4C43.8 114.928 43.9823 114.498 44.2799 114.177L44.3769 114.08C44.6981 113.782 45.1277 113.6 45.6 113.6C46.594 113.6 47.4 114.406 47.4 115.4C47.4 116.394 46.594 117.2 45.6 117.2Z" fill="black"/>
<path d="M35.3693 115.826L35.5761 116.033C35.8104 116.267 36.1903 116.267 36.4247 116.033C36.6589 115.799 36.6589 115.419 36.4247 115.184L34.5686 113.328C34.537 113.295 34.5047 113.263 34.4717 113.231L32.1431 110.903C31.9088 110.669 31.5289 110.669 31.2945 110.903C31.0602 111.137 31.0602 111.517 31.2945 111.751L31.9738 112.431C30.5189 112.638 29.4 113.888 29.4 115.4C29.4 117.057 30.7432 118.4 32.4 118.4C33.912 118.4 35.1623 117.281 35.3693 115.826ZM32.4 117.2C31.406 117.2 30.6 116.394 30.6 115.4C30.6 114.406 31.406 113.6 32.4 113.6C32.8723 113.6 33.3021 113.782 33.6232 114.08L33.72 114.177C34.0177 114.498 34.2 114.928 34.2 115.4C34.2 116.394 33.3941 117.2 32.4 117.2Z" fill="black"/>
<path d="M43.5241 132.031C42.3326 130.976 40.8705 130.4 39.263 130.4C37.6564 130.4 36.1937 130.976 35.0025 132.031C34.7543 132.251 34.7313 132.63 34.9509 132.878C35.1706 133.126 35.5498 133.149 35.7979 132.929C36.7738 132.066 37.9552 131.6 39.263 131.6C40.5716 131.6 41.7526 132.065 42.7287 132.929C42.9768 133.149 43.356 133.126 43.5757 132.878C43.7953 132.63 43.7722 132.251 43.5241 132.031Z" fill="black"/>
</g>
<g clip-path="url(#clip3_0_1)">
<path d="M81.9999 123.2C78.9283 123.2 76.2831 125.315 75.5795 128.264C75.3192 129.358 76.1809 130.4 77.3043 130.4C77.7764 130.4 78.1967 130.228 78.534 129.929C79.51 129.065 80.692 128.6 81.9999 128.6C83.3082 128.6 84.4897 129.065 85.4656 129.929C85.8024 130.228 86.2236 130.4 86.665 130.4C87.8196 130.4 88.6807 129.358 88.4204 128.265C87.7174 125.316 85.072 123.2 81.9999 123.2ZM86.6962 129.2C86.5288 129.2 86.3869 129.142 86.2616 129.031C85.0698 127.976 83.6071 127.4 82 127.4C80.3934 127.4 78.93 127.976 77.7388 129.031C77.6133 129.142 77.4716 129.2 77.3355 129.2C76.9432 129.2 76.6693 128.868 76.7468 128.542C77.3221 126.131 79.4869 124.4 81.9999 124.4C84.5133 124.4 86.6782 126.131 87.2531 128.543C87.3307 128.869 87.0569 129.2 86.6962 129.2Z" fill="black"/>
<path d="M82 104C72.059 104 64 112.059 64 122C64 131.941 72.059 140 82 140C91.941 140 100 131.941 100 122C100 112.059 91.941 104 82 104ZM82 138.8C72.7218 138.8 65.2 131.278 65.2 122C65.2 112.722 72.7218 105.2 82 105.2C91.2782 105.2 98.8 112.722 98.8 122C98.8 131.278 91.2782 138.8 82 138.8Z" fill="black"/>
<path d="M89.0261 112.431L89.7053 111.751C89.9396 111.517 89.9396 111.137 89.7053 110.903C89.4711 110.669 89.0912 110.669 88.8568 110.903L86.5283 113.231C86.4953 113.263 86.463 113.295 86.4314 113.328L84.5758 115.184C84.3415 115.418 84.3415 115.798 84.5758 116.033C84.81 116.267 85.1899 116.267 85.4243 116.033L85.6307 115.826C85.8377 117.281 87.088 118.4 88.6 118.4C90.2568 118.4 91.6 117.057 91.6 115.4C91.6 113.888 90.481 112.638 89.0261 112.431ZM88.6 117.2C87.606 117.2 86.8 116.394 86.8 115.4C86.8 114.928 86.9823 114.498 87.2799 114.177L87.3769 114.08C87.6981 113.782 88.1277 113.6 88.6 113.6C89.594 113.6 90.4 114.406 90.4 115.4C90.4 116.394 89.594 117.2 88.6 117.2Z" fill="black"/>
<path d="M78.3693 115.826L78.5761 116.033C78.8104 116.267 79.1903 116.267 79.4247 116.033C79.6589 115.799 79.6589 115.419 79.4247 115.184L77.5686 113.328C77.537 113.295 77.5047 113.263 77.4717 113.231L75.1431 110.903C74.9088 110.669 74.5289 110.669 74.2945 110.903C74.0602 111.137 74.0602 111.517 74.2945 111.751L74.9738 112.431C73.5189 112.638 72.4 113.888 72.4 115.4C72.4 117.057 73.7432 118.4 75.4 118.4C76.912 118.4 78.1623 117.281 78.3693 115.826ZM75.4 117.2C74.406 117.2 73.6 116.394 73.6 115.4C73.6 114.406 74.406 113.6 75.4 113.6C75.8723 113.6 76.3021 113.782 76.6232 114.08L76.72 114.177C77.0177 114.498 77.2 114.928 77.2 115.4C77.2 116.394 76.3941 117.2 75.4 117.2Z" fill="black"/>
<path d="M86.5241 132.031C85.3326 130.976 83.8705 130.4 82.263 130.4C80.6564 130.4 79.1937 130.976 78.0025 132.031C77.7543 132.251 77.7313 132.63 77.9509 132.878C78.1706 133.126 78.5498 133.149 78.7979 132.929C79.7738 132.066 80.9552 131.6 82.263 131.6C83.5716 131.6 84.7526 132.065 85.7287 132.929C85.9768 133.149 86.356 133.126 86.5757 132.878C86.7953 132.63 86.7722 132.251 86.5241 132.031Z" fill="black"/>
</g>
<g clip-path="url(#clip4_0_1)">
<path d="M82 61C72.059 61 64 69.059 64 79C64 88.941 72.059 97 82 97C91.941 97 100 88.941 100 79C100 69.059 91.941 61 82 61ZM82 95.8C72.7218 95.8 65.2 88.2782 65.2 79C65.2 69.7218 72.7218 62.2 82 62.2C91.2782 62.2 98.8 69.7218 98.8 79C98.8 88.2782 91.2782 95.8 82 95.8Z" fill="black"/>
<path d="M73 73.6C73 72.606 73.806 71.8 74.8 71.8C75.794 71.8 76.6 72.606 76.6 73.6C76.6 73.9314 76.8686 74.2 77.2 74.2C77.5314 74.2 77.8 73.9314 77.8 73.6C77.8 71.9432 76.4567 70.6 74.7999 70.6C73.1432 70.6 71.7999 71.9432 71.7999 73.6C71.7999 73.9314 72.0685 74.2 72.3999 74.2C72.7313 74.2 73 73.9314 73 73.6Z" fill="black"/>
<path d="M89.2 70.6C87.5432 70.6 86.2 71.9432 86.2 73.6C86.2 73.9314 86.4686 74.2 86.8 74.2C87.1313 74.2 87.3999 73.9314 87.3999 73.6C87.3999 72.606 88.2059 71.8 89.1999 71.8C90.1939 71.8 90.9999 72.606 90.9999 73.6C90.9999 73.9314 91.2686 74.2 91.5999 74.2C91.9313 74.2 92.1999 73.9314 92.1999 73.6C92.2 71.9432 90.8568 70.6 89.2 70.6Z" fill="black"/>
<path d="M69.4 76.6C68.0744 76.6 67 77.6745 67 79C67 80.3256 68.0745 81.4 69.4 81.4C70.7256 81.4 71.8 80.3255 71.8 79C71.8 77.6744 70.7256 76.6 69.4 76.6ZM69.4 80.2C68.7372 80.2 68.2 79.6628 68.2 79C68.2 78.3372 68.7372 77.8 69.4 77.8C70.0628 77.8 70.6 78.3372 70.6 79C70.6 79.6628 70.0628 80.2 69.4 80.2Z" fill="black"/>
<path d="M94.6 76.6C93.2744 76.6 92.2 77.6745 92.2 79C92.2 80.3256 93.2745 81.4 94.6 81.4C95.9256 81.4 97 80.3255 97 79C97 77.6744 95.9256 76.6 94.6 76.6ZM94.6 80.2C93.9372 80.2 93.4 79.6628 93.4 79C93.4 78.3372 93.9372 77.8 94.6 77.8C95.2628 77.8 95.8 78.3372 95.8 79C95.8 79.6628 95.2628 80.2 94.6 80.2Z" fill="black"/>
<path d="M91.313 83.3014C91.0376 83.1171 90.665 83.1908 90.4805 83.4661C88.5973 86.2783 85.4455 88 82.0001 88C78.5545 88 75.4022 86.2781 73.5198 83.4662C73.3354 83.1908 72.9627 83.1171 72.6874 83.3014C72.412 83.4857 72.3383 83.8584 72.5226 84.1337C74.6255 87.2748 78.1498 89.2 82.0001 89.2C85.8503 89.2 89.374 87.275 91.4777 84.1338C91.6621 83.8585 91.5883 83.4859 91.313 83.3014Z" fill="black"/>
</g>
<g clip-path="url(#clip5_0_1)">
<path d="M126 104C116.059 104 108 112.059 108 122C108 131.941 116.059 140 126 140C135.941 140 144 131.941 144 122C144 112.059 135.941 104 126 104ZM126 138.8C116.722 138.8 109.2 131.278 109.2 122C109.2 112.722 116.722 105.2 126 105.2C135.278 105.2 142.8 112.722 142.8 122C142.8 131.278 135.278 138.8 126 138.8Z" fill="black"/>
<path d="M117 116.6C117 115.606 117.806 114.8 118.8 114.8C119.794 114.8 120.6 115.606 120.6 116.6C120.6 116.931 120.869 117.2 121.2 117.2C121.531 117.2 121.8 116.931 121.8 116.6C121.8 114.943 120.457 113.6 118.8 113.6C117.143 113.6 115.8 114.943 115.8 116.6C115.8 116.931 116.068 117.2 116.4 117.2C116.731 117.2 117 116.931 117 116.6Z" fill="black"/>
<path d="M133.2 113.6C131.543 113.6 130.2 114.943 130.2 116.6C130.2 116.931 130.469 117.2 130.8 117.2C131.131 117.2 131.4 116.931 131.4 116.6C131.4 115.606 132.206 114.8 133.2 114.8C134.194 114.8 135 115.606 135 116.6C135 116.931 135.269 117.2 135.6 117.2C135.931 117.2 136.2 116.931 136.2 116.6C136.2 114.943 134.857 113.6 133.2 113.6Z" fill="black"/>
<path d="M113.4 119.6C112.074 119.6 111 120.674 111 122C111 123.326 112.074 124.4 113.4 124.4C114.726 124.4 115.8 123.326 115.8 122C115.8 120.674 114.726 119.6 113.4 119.6ZM113.4 123.2C112.737 123.2 112.2 122.663 112.2 122C112.2 121.337 112.737 120.8 113.4 120.8C114.063 120.8 114.6 121.337 114.6 122C114.6 122.663 114.063 123.2 113.4 123.2Z" fill="black"/>
<path d="M138.6 119.6C137.274 119.6 136.2 120.674 136.2 122C136.2 123.326 137.274 124.4 138.6 124.4C139.926 124.4 141 123.326 141 122C141 120.674 139.926 119.6 138.6 119.6ZM138.6 123.2C137.937 123.2 137.4 122.663 137.4 122C137.4 121.337 137.937 120.8 138.6 120.8C139.263 120.8 139.8 121.337 139.8 122C139.8 122.663 139.263 123.2 138.6 123.2Z" fill="black"/>
<path d="M135.313 126.301C135.038 126.117 134.665 126.191 134.481 126.466C132.597 129.278 129.446 131 126 131C122.554 131 119.402 129.278 117.52 126.466C117.335 126.191 116.963 126.117 116.687 126.301C116.412 126.486 116.338 126.858 116.523 127.134C118.625 130.275 122.15 132.2 126 132.2C129.85 132.2 133.374 130.275 135.478 127.134C135.662 126.859 135.588 126.486 135.313 126.301Z" fill="black"/>
</g>
<defs>
<clipPath id="clip0_0_1">
<rect width="36" height="36" fill="white" transform="matrix(-1 0 0 1 144 61)"/>
</clipPath>
<clipPath id="clip1_0_1">
<rect width="36" height="36" fill="white" transform="matrix(-1 0 0 1 57 147)"/>
</clipPath>
<clipPath id="clip2_0_1">
<rect width="36" height="36" fill="white" transform="translate(21 104)"/>
</clipPath>
<clipPath id="clip3_0_1">
<rect width="36" height="36" fill="white" transform="translate(64 104)"/>
</clipPath>
<clipPath id="clip4_0_1">
<rect width="36" height="36" fill="white" transform="translate(64 61)"/>
</clipPath>
<clipPath id="clip5_0_1">
<rect width="36" height="36" fill="white" transform="translate(108 104)"/>
</clipPath>
</defs>
</svg>
