<svg width="100%" height="1005" viewBox="-1 -1 1003 501" fill="none" xmlns="http://www.w3.org/2000/svg">
    <path className="outline" d="M0 35C0 15.67 15.67 0 35 0h931c19.33 0 35 15.67 35 35v16H0V35Z" fill="#E5E5E5" stroke="#e5e5e5"/>
    <path className="outline" d="M0 51h1001v414c0 19.33-15.67 35-35 35H35c-19.33 0-35-15.67-35-35V51Z" fill="#A0A09F" stroke="#e5e5e5"/>

    <path fill="#EC5800" stroke="#e5e5e5" d="M32.5 29.5a11 11 0 1 0 22 0 11 11 0 1 0-22 0"/>
    <path fill="#F4C430" stroke="#e5e5e5" d="M71.5 29.5a11 11 0 1 0 22 0 11 11 0 1 0-22 0"/>
    <path fill="#0BDA51" stroke="#e5e5e5" d="M110.5 29.5a11 11 0 1 0 22 0 11 11 0 1 0-22 0"/>
</svg>
